<svg xmlns="http://www.w3.org/2000/svg" viewBox="0 0 640 360" width="640" height="360" role="img" font-family="system-ui, sans-serif">
<line x1="52" y1="328" x2="624" y2="328" stroke="#e1e0d9" stroke-width="1"/>
<text x="44" y="331.5" text-anchor="end" font-size="11" fill="#898781">0</text>
<line x1="52" y1="264.8" x2="624" y2="264.8" stroke="#e1e0d9" stroke-width="1"/>
<text x="44" y="268.3" text-anchor="end" font-size="11" fill="#898781">20</text>
<line x1="52" y1="201.6" x2="624" y2="201.6" stroke="#e1e0d9" stroke-width="1"/>
<text x="44" y="205.1" text-anchor="end" font-size="11" fill="#898781">40</text>
<line x1="52" y1="138.4" x2="624" y2="138.4" stroke="#e1e0d9" stroke-width="1"/>
<text x="44" y="141.9" text-anchor="end" font-size="11" fill="#898781">60</text>
<line x1="52" y1="75.2" x2="624" y2="75.2" stroke="#e1e0d9" stroke-width="1"/>
<text x="44" y="78.7" text-anchor="end" font-size="11" fill="#898781">80</text>
<line x1="52" y1="12" x2="624" y2="12" stroke="#e1e0d9" stroke-width="1"/>
<text x="44" y="15.5" text-anchor="end" font-size="11" fill="#898781">100</text>
<line x1="52" y1="328" x2="624" y2="328" stroke="#c3c2b7" stroke-width="1"/>
<line x1="195" y1="312.2" x2="195" y2="312.99" stroke="#2a78d6" stroke-width="1"/>
<line x1="195" y1="320.89" x2="195" y2="324.84" stroke="#2a78d6" stroke-width="1"/>
<line x1="179" y1="312.2" x2="211" y2="312.2" stroke="#2a78d6" stroke-width="1"/>
<line x1="179" y1="324.84" x2="211" y2="324.84" stroke="#2a78d6" stroke-width="1"/>
<rect x="163" y="312.99" width="64" height="7.9" fill="#2a78d6" fill-opacity="0.25" stroke="#2a78d6"/>
<line x1="163" y1="316.94" x2="227" y2="316.94" stroke="#2a78d6" stroke-width="2"/>
<circle cx="195" cy="12" r="3" fill="#2a78d6"/>
<line x1="481" y1="299.56" x2="481" y2="302.72" stroke="#2a78d6" stroke-width="1"/>
<line x1="481" y1="321.68" x2="481" y2="321.68" stroke="#2a78d6" stroke-width="1"/>
<line x1="465" y1="299.56" x2="497" y2="299.56" stroke="#2a78d6" stroke-width="1"/>
<line x1="465" y1="321.68" x2="497" y2="321.68" stroke="#2a78d6" stroke-width="1"/>
<rect x="449" y="302.72" width="64" height="18.96" fill="#2a78d6" fill-opacity="0.25" stroke="#2a78d6"/>
<line x1="449" y1="318.52" x2="513" y2="318.52" stroke="#2a78d6" stroke-width="2"/>
<text x="195" y="344" text-anchor="middle" font-size="11" fill="#52514e">web</text>
<text x="481" y="344" text-anchor="middle" font-size="11" fill="#52514e">tel</text>
</svg>
