<svg xmlns="http://www.w3.org/2000/svg" viewBox="0 0 640 360" width="640" height="360" role="img" font-family="system-ui, sans-serif">
<rect x="52" y="12" width="220" height="158" fill="#1a2332"/>
<rect x="272" y="12" width="220" height="158" fill="#5b9ce8"/>
<rect x="52" y="170" width="220" height="158" fill="#d5e5f9"/>
<rect x="272" y="170" width="220" height="158" fill="#3b608d"/>
<text x="44" y="94.5" text-anchor="end" font-size="11" fill="#c9c8c1">0</text>
<text x="44" y="252.5" text-anchor="end" font-size="11" fill="#c9c8c1">1</text>
<text x="162" y="344" text-anchor="middle" font-size="11" fill="#c9c8c1">0</text>
<text x="382" y="344" text-anchor="middle" font-size="11" fill="#c9c8c1">1</text>
<rect x="500" y="133" width="12" height="5" fill="#1d283a"/>
<rect x="500" y="128" width="12" height="5" fill="#223249"/>
<rect x="500" y="123" width="12" height="5" fill="#283c58"/>
<rect x="500" y="118" width="12" height="5" fill="#2d4667"/>
<rect x="500" y="113" width="12" height="5" fill="#325076"/>
<rect x="500" y="108" width="12" height="5" fill="#385a85"/>
<rect x="500" y="103" width="12" height="5" fill="#3d6595"/>
<rect x="500" y="98" width="12" height="5" fill="#436fa4"/>
<rect x="500" y="93" width="12" height="5" fill="#4879b3"/>
<rect x="500" y="88" width="12" height="5" fill="#4d83c2"/>
<rect x="500" y="83" width="12" height="5" fill="#538dd1"/>
<rect x="500" y="78" width="12" height="5" fill="#5897e0"/>
<rect x="500" y="73" width="12" height="5" fill="#609fe9"/>
<rect x="500" y="68" width="12" height="5" fill="#6aa5ea"/>
<rect x="500" y="63" width="12" height="5" fill="#74abec"/>
<rect x="500" y="58" width="12" height="5" fill="#7fb1ed"/>
<rect x="500" y="53" width="12" height="5" fill="#89b7ee"/>
<rect x="500" y="48" width="12" height="5" fill="#93bdf0"/>
<rect x="500" y="43" width="12" height="5" fill="#9dc4f1"/>
<rect x="500" y="38" width="12" height="5" fill="#a7caf3"/>
<rect x="500" y="33" width="12" height="5" fill="#b1d0f4"/>
<rect x="500" y="28" width="12" height="5" fill="#bcd6f5"/>
<rect x="500" y="23" width="12" height="5" fill="#c6dcf7"/>
<rect x="500" y="18" width="12" height="5" fill="#d0e2f8"/>
<text x="517" y="26" font-size="10" fill="#8f8d86">9</text>
<text x="517" y="138" font-size="10" fill="#8f8d86">1</text>
</svg>
